{
  "accessors": [
    {
      "bufferView": 1,
      "componentType": 5126,
      "count": 6607,
      "max": [
        -90.7641372680664,
        193.0540008544922,
        22.0
      ],
      "min": [
        -230.38929748535156,
        53.053958892822266,
        -1.7000710192914548e-14
      ],
      "type": "VEC3"
    },
    {
      "bufferView": 1,
      "byteOffset": 79284,
      "componentType": 5126,
      "count": 6607,
      "max": [
        1.0,
        1.0,
        1.0
      ],
      "min": [
        -1.0,
        -1.0,
        -1.0
      ],
      "type": "VEC3"
    },
    {
      "bufferView": 0,
      "componentType": 5125,
      "count": 28782,
      "type": "SCALAR"
    }
  ],
  "asset": {
    "extras": {
      "author": "trofitec.by (https://sketchfab.com/trofitec)",
      "license": "CC-BY-4.0 (http://creativecommons.org/licenses/by/4.0/)",
      "source": "https://sketchfab.com/3d-models/gear-99eba38fd9764ca4b263d62a96418948",
      "title": "Gear"
    },
    "generator": "Sketchfab-12.66.0",
    "version": "2.0"
  },
  "bufferViews": [
    {
      "buffer": 0,
      "byteLength": 115128,
      "name": "floatBufferViews",
      "target": 34963
    },
    {
      "buffer": 0,
      "byteLength": 158568,
      "byteOffset": 115128,
      "byteStride": 12,
      "name": "floatBufferViews",
      "target": 34962
    }
  ],
  "buffers": [
    {
      "byteLength": 273696,
      "uri": "scene.bin"
    }
  ],
  "materials": [
    {
      "doubleSided": true,
      "name": "Scene_-_Root",
      "pbrMetallicRoughness": {
        "baseColorFactor": [
          0.04518620438567554,
          0.042311410620809675,
          0.042311410620809675,
          1.0
        ],
        "metallicFactor": 0.0,
        "roughnessFactor": 0.0
      }
    }
  ],
  "meshes": [
    {
      "name": "Object_0",
      "primitives": [
        {
          "attributes": {
            "NORMAL": 1,
            "POSITION": 0
          },
          "indices": 2,
          "material": 0,
          "mode": 4
        }
      ]
    }
  ],
  "nodes": [
    {
      "children": [
        1
      ],
      "matrix": [
        0.17321625351905823,
        0.9400511384010316,
        -0.29376855492591836,
        0.0,
        -0.6513397693634033,
        -0.1143949776887892,
        -0.7501135468482971,
        0.0,
        -0.7387507557868958,
        0.3212749958038329,
        0.5924776196479798,
        0.0,
        -44.48579788208008,
        172.4928131103516,
        -84.43908691406246,
        1.0
      ],
      "name": "Sketchfab_model"
    },
    {
      "children": [
        2
      ],
      "name": "gear.stl.cleaner.materialmerger.gles"
    },
    {
      "mesh": 0,
      "name": "Object_2"
    }
  ],
  "scene": 0,
  "scenes": [
    {
      "name": "Sketchfab_Scene",
      "nodes": [
        0
      ]
    }
  ]
}
